# xmcd CD database file
#
# Track frame offsets:
#	150
#	13963
#	29658
#	47673
#	62940
#	80490
#	94258
#	112403
#	128565
#	143568
#
# Disc length: 2123 seconds
#
# Revision: 2
# Processed by: cddbd v1.5.1PL0 Copyright (c) Steve Scherf et al.
# Submitted via: CDex 1.51
#
DISCID=8f08490a
DTITLE=John Berry - John Berry
DYEAR=1993
DGENRE=Country
TTITLE0=Somebody
TTITLE1=Kiss Me In The Car
TTITLE2=More Sorry Than You'll Ever Know
TTITLE3=A Mind Of Her Own
TTITLE4=Your Love Amazes Me
TTITLE5=More Than Just A Little
TTITLE6=You And Only You
TTITLE7=Destiny
TTITLE8=What's In It For Me
TTITLE9=When Love Dies
EXTD=YEAR: 1993
EXTT0=
EXTT1=
EXTT2=
EXTT3=
EXTT4=
EXTT5=
EXTT6=
EXTT7=
EXTT8=
EXTT9=
PLAYORDER=
